<svg xmlns="http://www.w3.org/2000/svg" viewBox="0 0 800 800"><defs><linearGradient id="zaso-flip-bg" x1="0" y1="0" x2="800" y2="800" gradientUnits="userSpaceOnUse"><stop offset="0" stop-color="#01949a"/><stop offset="0.52" stop-color="#01b0a3"/><stop offset="1" stop-color="#00cdac"/></linearGradient></defs><title>ZASO Flip Card</title><rect width="800" height="800" fill="url(#zaso-flip-bg)"/><g opacity="0.18"><rect x="250" y="232" width="300" height="220" rx="20" fill="#ffffff"/></g><rect x="220" y="300" width="360" height="248" rx="22" fill="#ffffff"/><rect x="220" y="300" width="360" height="76" rx="22" fill="#0f172a" opacity="0.85"/><rect x="220" y="354" width="360" height="22" fill="#0f172a" opacity="0.85"/><rect x="252" y="408" width="220" height="20" rx="10" fill="#01949a" opacity="0.55"/><rect x="252" y="446" width="160" height="20" rx="10" fill="#01949a" opacity="0.35"/><rect x="252" y="494" width="120" height="34" rx="17" fill="#00cdac"/><path d="M566 214c34 14 58 47 58 86h-26l34 40 34-40h-26c0-52-33-96-79-110z" fill="#ffffff" opacity="0.9"/><path d="M234 586c-34-14-58-47-58-86h26l-34-40-34 40h26c0 52 33 96 79 110z" fill="#ffffff" opacity="0.9"/></svg>
